<svg version="1.1" xmlns="http://www.w3.org/2000/svg" xmlns:xlink="http://www.w3.org/1999/xlink">
	<symbol id="astropay" viewBox="0 0 86 32">
		<path d="M5.78.75L.04 17.56H3.4l1.62-4.9h4.66l1.67 4.9h3.44L9.06.75H5.78zm3.11 9.12H5.88l1.25-3.7c.08-.25.17-.5.24-.76.09.26.16.52.26.78l1.26 3.69zM20.48 9.92c-1.55-.62-1.72-.9-1.72-1.35 0-.56.47-.92 1.23-.92.92 0 1.63.36 1.97.57l.66.42.87-2.67-.38-.26a5.8 5.8 0 00-3.07-.78c-2.6 0-4.48 1.63-4.48 3.9 0 2.08 1.84 3.18 3.39 3.74 1.53.58 1.66.98 1.66 1.46 0 .92-.97 1.07-1.53 1.07-.9 0-1.85-.4-2.4-.7l-.66-.4-.86 2.73.42.25c.94.56 2.2.87 3.45.87 2.86 0 4.78-1.6 4.78-3.99 0-2.42-1.9-3.41-3.33-3.94zM28.88 2.26l-3.22.97v1.93h-1.72v2.76h1.73v5.5c0 1.53.32 2.62.95 3.36a3.48 3.48 0 002.64 1.06c.98 0 1.68-.2 2.01-.32l.43-.16-.17-2.78-.73.23c-.23.06-.48.12-1 .12-.4 0-.93 0-.93-1.57V7.93h2.92V5.16h-2.9l-.02-2.9zM39.6 5.04l-.58-.07a3.7 3.7 0 00-3.24 1.1l-.03-.92h-3.02l.05.65c.05.95.1 2.05.1 3.46v8.32h3.25V11c0-.32.03-.62.06-.85.25-1.3 1.05-2.1 2.12-2.1.26 0 .42 0 .56.03l.74.16v-3.2zM45.55 4.92c-3.63 0-6.17 2.69-6.17 6.55 0 3.74 2.45 6.37 5.96 6.37 2.99 0 6.19-2.06 6.19-6.56.03-3.74-2.44-6.35-5.98-6.35zm2.7 6.42c0 2.16-1.17 3.74-2.78 3.74s-2.77-1.56-2.77-3.69c0-1.37.6-3.71 2.83-3.71 2.15-.02 2.73 2.38 2.73 3.66zM62.23 2.08C61.15 1.12 59.55.63 57.45.63c-1.4 0-2.74.1-3.96.32l-.5.09v16.54h3.23v-6.16c.33.03.67.05 1 .05 2.18 0 4.03-.68 5.21-1.9a5.14 5.14 0 001.38-3.76 4.93 4.93 0 00-1.58-3.73zm-1.66 3.83c0 2.36-2.07 2.7-3.3 2.7-.42 0-.76-.01-1.07-.05V3.5c.32-.04.75-.05 1.3-.05 1.4.01 3.07.44 3.07 2.47zM73.7 14.28v-4.19c0-3.34-1.73-5.17-4.86-5.17-1.44 0-2.97.4-4.03 1.07l-.4.25.88 2.59.67-.46a4.8 4.8 0 012.61-.73c.65-.02 1.14.14 1.45.46.26.25.42.64.48 1.13-2.54.07-4.41.69-5.53 1.8a4.01 4.01 0 00-1.19 2.98 3.8 3.8 0 004.03 3.83c1.14 0 2.2-.36 3.03-1l.08.73h3.09l-.1-.7c-.16-.68-.2-1.56-.2-2.59zm-5.42.83c-.48 0-1.29-.17-1.29-1.33 0-.45.13-.8.42-1.08.39-.37 1.22-.8 3.11-.84v1.33c0 .1-.01.27-.05.46a2.25 2.25 0 01-2.19 1.46zM82.66 5.15l-2.35 7-.18.52c-.05-.17-.1-.34-.18-.5l-2.57-7.01h-3.56l4.45 11.14.02.03c.07.14.1.23.1.26l-.1.24c-.4.84-.97 1.6-1.54 2.06h-.01a4.6 4.6 0 01-1.58.88l-.58.2.84 2.77.53-.1a6.25 6.25 0 002.8-1.43c1.57-1.4 2.62-3.63 4-7.26l3.37-8.8h-3.46z"/>
		<path fill="currentColor" d="M11.93 5.38c2.1-2.13 5.65-3.41 9.51-3.41 1.51 0 2.97.19 4.35.57l.12.03 2.48-.74-1.12-.42C25.16.61 22.72.18 20.23.18c-3.63 0-7 .87-9.54 2.46l-.28.18 1.05 3.05.47-.48zM72.86 30.12c0 .93-.76 1.7-1.7 1.7H52.62c-.93 0-1.7-.76-1.7-1.7V22.1c0-.94.77-1.71 1.7-1.71h18.52c.94 0 1.71.78 1.71 1.7v8.03z"/>
		<path d="M56.02 24.06c-.55 0-1 .2-1.3.59-.3.39-.47.92-.47 1.6 0 .72.16 1.26.46 1.64.3.38.74.55 1.3.55.25 0 .5-.02.73-.09.24-.04.47-.1.71-.19V29c-.46.17-.97.25-1.56.25-.86 0-1.52-.25-1.97-.77a3.25 3.25 0 01-.69-2.22c0-.62.12-1.15.33-1.6.23-.46.55-.8.98-1.04.42-.25.92-.36 1.46-.36.6 0 1.15.13 1.67.37l-.35.8c-.18-.1-.4-.17-.61-.24a1.84 1.84 0 00-.7-.13zM61.4 29.18l-.19-.61h-.03c-.2.25-.41.44-.64.54-.2.1-.5.16-.82.16-.43 0-.78-.11-1.02-.36s-.36-.56-.36-.99c0-.46.17-.8.5-1.03s.85-.36 1.54-.37l.77-.03v-.25c0-.28-.05-.49-.2-.63-.13-.14-.33-.21-.62-.21-.23 0-.44.03-.64.1-.22.07-.4.14-.6.24l-.3-.67a3.33 3.33 0 011.6-.39c.56 0 1 .13 1.28.37s.43.62.43 1.15v2.97h-.7v.01zm-1.4-.64c.32 0 .6-.1.81-.29s.32-.46.32-.8v-.37l-.56.03c-.45 0-.78.1-.98.23s-.29.33-.29.6c0 .2.06.34.18.46s.28.14.51.14zM65.49 24.68c.18 0 .34.01.47.04l-.09.88a1.93 1.93 0 00-.41-.05c-.37 0-.68.12-.92.38-.23.24-.34.56-.34.95v2.3h-.94v-4.41H64l.12.77h.05c.15-.26.33-.47.57-.63.22-.16.49-.23.75-.23zM68.27 29.27c-.55 0-.97-.2-1.3-.6s-.46-.96-.46-1.68c0-.73.15-1.3.47-1.7.3-.4.73-.61 1.29-.61.57 0 1.02.21 1.32.64h.04a5.73 5.73 0 01-.05-.76v-1.6h.93v6.22h-.73l-.16-.57h-.05c-.27.43-.73.66-1.3.66zm.26-.77c.39 0 .67-.1.84-.32.2-.21.28-.57.28-1.06v-.13c0-.56-.1-.96-.28-1.2s-.45-.34-.84-.34a.88.88 0 00-.78.4c-.17.28-.25.65-.25 1.15s.08.86.25 1.12c.16.25.42.38.78.38z"/>
	</symbol>
	<symbol id="beeline" viewBox="0 0 32 32">
		<path d="M6.5 11.16a9.5 9.5 0 1019 0 9.5 9.5 0 00-19 0z"/>
		<path fill="#7e7e7e" d="M8.9 4.87c4.59-.4 9.62-.4 14.2 0a9.46 9.46 0 00-14.2 0zM23.2 17.36c-4.45.35-9.75.37-14.4 0a9.47 9.47 0 0014.4 0zM6.82 8.75c6.18-.1 12.2-.12 18.37 0a9.45 9.45 0 01.08 4.52c-6.25.18-12.4.13-18.53 0a9.64 9.64 0 01.08-4.52z"/>
		<path d="M29.93 25.06c-.01 0-.02 0-.02.02v.16l.02.02h.3v1l.01.01h.16s.02 0 .02-.02v-1h.3v-.18-.02zM17.86 23.57c0 .32.24.57.57.57a.57.57 0 100-1.14.57.57 0 00-.57.57zM20.86 25.45l-.04.02-.07-.2a.17.17 0 00-.16-.12h-.37c-.1 0-.17.08-.17.18v4.74c0 .1.08.18.17.18h.67c.1 0 .17-.08.17-.18v-3.84l.02-.01c.28-.14.55-.23 1.09-.23.65 0 .77.24.77.63v3.44c0 .1.08.17.17.17h.67c.1 0 .17-.08.17-.17v-3.42c0-1.04-.62-1.6-1.79-1.6-.43.01-.86.15-1.3.41zM18.93 25.32c0-.1-.08-.18-.17-.18h-.65c-.1 0-.17.08-.17.18v4.74c0 .1.08.17.17.17h.64c.1 0 .18-.08.18-.17zM16.73 22.95c0-.1-.08-.17-.18-.17h-.64c-.1 0-.18.07-.18.17v7.1c0 .1.08.18.18.18h.64c.1 0 .18-.08.18-.17zM6.78 27.24c.06-.65.23-1.25 1.14-1.25.8 0 .94.42.96 1.25v.04h-2.1v-.04zm-1.02.45c0 .65 0 2.64 2.16 2.64.65 0 1.08-.03 1.64-.22.06-.02.1-.09.1-.16v-.53c0-.06-.02-.12-.07-.14-.05-.04-.11-.03-.16-.02-.5.1-.88.13-1.5.13-.9 0-1.07-.57-1.14-1.19v-.04h2.95c.1 0 .17-.08.17-.17v-.3c0-1.28-.15-2.64-1.97-2.64-2.18 0-2.18 2-2.18 2.64zM11.7 27.24c.05-.65.22-1.25 1.14-1.25.78 0 .94.42.96 1.25v.04h-2.1v-.04zm-1.02.45c0 .65 0 2.64 2.17 2.64.65 0 1.08-.03 1.64-.22.06-.02.1-.09.1-.16v-.53c0-.06-.03-.12-.08-.14-.04-.04-.1-.03-.16-.02-.49.1-.87.13-1.5.13-.89 0-1.07-.57-1.13-1.19v-.04h2.94c.1 0 .17-.08.17-.17v-.3c0-1.28-.15-2.64-1.97-2.64-2.18 0-2.18 2-2.18 2.64zM25.85 27.24c.04-.65.22-1.25 1.14-1.25.79 0 .94.42.96 1.25v.04h-2.1v-.04zm-1.02.45c0 .65 0 2.64 2.16 2.64.65 0 1.07-.03 1.63-.22.07-.02.1-.09.1-.16v-.53c0-.06-.03-.12-.08-.14-.05-.04-.1-.03-.16-.02-.49.1-.87.13-1.5.13-.9 0-1.07-.57-1.13-1.19l-.01-.04h2.94c.1 0 .17-.08.17-.17v-.3c0-1.28-.15-2.64-1.97-2.64-2.15 0-2.15 2-2.15 2.64zM2.55 26.86c1.02 0 1.39.3 1.39 1.19 0 .58-.17 1.19-1.4 1.19h-1.5v-2.38h1.51zm-.07-3.1c1.08 0 1.23.5 1.23 1.06 0 .7-.37 1.05-1.15 1.05H1.05v-2.1l1.43-.02zm-2.3-1.01c-.1 0-.18.08-.18.19v7.1c0 .12.08.2.19.2h2.3c1.66 0 2.58-.78 2.58-2.2 0-.76-.37-1.41-.99-1.74l-.03-.02.03-.02c.48-.35.76-.87.76-1.45 0-.77-.31-2.06-2.4-2.06zM31.8 25.06h-.02l-.33.77-.33-.76-.02-.01h-.2l-.01.02v1.16c0 .01 0 .02.02.02h.16l.01-.02v-.81a259.52 259.52 0 00.3.68h.15l.3-.69-.02.82v.01l.01.01h.16c.01 0 .02 0 .02-.02v-1.16c0-.01 0-.02-.02-.02z"/>
	</symbol>
	<symbol id="bitcoin" viewBox="0 0 160 32">
		<path fill="currentColor" d="M34.36 19.87a16.2 16.2 0 01-19.63 11.65A15.98 15.98 0 012.96 12.13 16.2 16.2 0 0122.57.48a15.98 15.98 0 0111.79 19.39z"/>
		<path d="M25.79 13.72c.32-2.13-1.32-3.27-3.56-4.04l.73-2.88-1.78-.44-.7 2.81-1.43-.33.71-2.83L18 5.58l-.73 2.88c-.39-.09-.77-.17-1.13-.27l-2.45-.6-.48 1.87s1.32.3 1.3.31c.71.18.84.65.82 1.03l-.83 3.28.19.06-.19-.05-1.16 4.6c-.09.22-.31.54-.82.42.02.03-1.29-.32-1.29-.32l-.88 2.01 2.31.57 1.27.33-.74 2.91 1.78.44.73-2.88 1.41.36-.72 2.87 1.77.44.74-2.91c3.03.57 5.3.34 6.26-2.37.78-2.18-.04-3.44-1.63-4.26 1.16-.26 2.04-1.02 2.27-2.58zm-4.06 5.62c-.55 2.18-4.26 1-5.47.71l.98-3.86c1.2.3 5.07.88 4.5 3.15zm.55-5.65c-.5 1.98-3.6.98-4.6.73l.89-3.5c1 .24 4.23.7 3.71 2.77zM49.9 9.68c1.32 0 2.46.23 3.4.69a6.83 6.83 0 012.39 1.86 7.8 7.8 0 011.4 2.76 13.5 13.5 0 01-.6 8.69A13.38 13.38 0 0144.06 32l-1.3-.03a21.38 21.38 0 01-4.63-.66c-.87-.21-1.71-.51-2.52-.9L42.7.98 49.05 0 46.5 10.45a9.96 9.96 0 011.64-.57 7.4 7.4 0 011.76-.2zm-5.32 17.34c.96 0 1.86-.24 2.7-.7a7.1 7.1 0 002.2-1.84 9.26 9.26 0 001.99-5.65c0-1.3-.22-2.3-.66-3.03-.43-.73-1.24-1.1-2.42-1.1-.38 0-.87.07-1.49.2-.61.14-1.17.43-1.66.86l-2.7 11.09a18.29 18.29 0 01.81.14c.14.02.3.02.5.02h.73zm19.53 4.41h-6.06l5.12-21.3h6.1l-5.16 21.3zm2.95-23.9a3.8 3.8 0 01-2.29-.74c-.69-.5-1.03-1.26-1.03-2.29 0-.56.12-1.1.35-1.6A4.28 4.28 0 0167.97.41c.84 0 1.6.25 2.29.75.68.5 1.02 1.27 1.02 2.29 0 .55-.11 1.1-.35 1.6a4.2 4.2 0 01-2.25 2.17c-.5.21-1.04.32-1.62.32zm7.53-2.7l6.35-.98-1.56 6.28h6.8l-1.22 4.94H78.2l-1.8 7.45c-.17.62-.26 1.2-.29 1.74-.03.54.04 1 .2 1.4.17.4.46.7.88.9.43.22 1.03.33 1.83.33.65 0 1.29-.06 1.9-.18.63-.13 1.26-.3 1.86-.5l.46 4.61c-.87.31-1.76.57-2.67.77-.95.22-2.09.32-3.4.32-1.88 0-3.34-.27-4.38-.82a4.83 4.83 0 01-2.22-2.28 7.14 7.14 0 01-.57-3.3c.06-1.24.25-2.55.57-3.92L74.6 4.82zm11.33 18.1c0-1.84.3-3.57.9-5.19a12.09 12.09 0 016.66-7.13c1.6-.7 3.38-1.05 5.35-1.05a13.45 13.45 0 015.94 1.26l-2.1 4.7c-.55-.22-1.12-.42-1.7-.59a7.5 7.5 0 00-2.14-.26c-2.03 0-3.63.69-4.82 2.06-1.19 1.38-1.78 3.23-1.78 5.55 0 1.38.3 2.49.9 3.34.6.85 1.7 1.28 3.32 1.28a10.77 10.77 0 004.26-.85l.46 4.82c-.84.31-1.68.57-2.55.79-.93.22-2.03.34-3.32.34-1.69 0-3.13-.24-4.3-.73a8.2 8.2 0 01-2.9-1.96c-.77-.83-1.32-1.8-1.67-2.9s-.51-2.27-.51-3.48zM112.86 32c-1.45 0-2.7-.22-3.77-.65a6.96 6.96 0 01-2.64-1.83c-.7-.78-1.22-1.7-1.58-2.77s-.53-2.24-.53-3.54c0-1.62.26-3.24.8-4.86a13.73 13.73 0 012.36-4.37 12.6 12.6 0 013.8-3.19c1.5-.82 3.23-1.23 5.16-1.23 1.42 0 2.68.22 3.76.65a7.01 7.01 0 014.23 4.6c.36 1.06.54 2.24.54 3.54 0 1.62-.26 3.24-.78 4.86a13.93 13.93 0 01-2.3 4.37c-1 1.3-2.27 2.36-3.78 3.18a10.85 10.85 0 01-5.27 1.23zm3.03-17.33c-.9 0-1.7.25-2.37.76a6.65 6.65 0 00-1.72 1.95 10.93 10.93 0 00-1.4 5.22c0 1.35.23 2.4.66 3.16.44.76 1.23 1.14 2.38 1.14.9 0 1.69-.26 2.37-.77a6.66 6.66 0 001.72-1.95c.47-.78.82-1.64 1.05-2.57.23-.93.35-1.82.35-2.65 0-1.35-.22-2.4-.66-3.16-.44-.75-1.23-1.13-2.38-1.13zm15.7 16.76h-6.06l5.12-21.3h6.1l-5.15 21.3zm2.95-23.9c-.82.02-1.63-.25-2.29-.74-.68-.5-1.03-1.26-1.03-2.29 0-.56.12-1.1.35-1.6a4.22 4.22 0 012.26-2.16 4.09 4.09 0 011.61-.33c.85 0 1.62.25 2.3.75.68.5 1.03 1.27 1.03 2.29 0 .57-.12 1.1-.35 1.6a4.2 4.2 0 01-2.25 2.17c-.51.21-1.05.32-1.62.32zm6.59 3.57c.46-.13.97-.3 1.53-.47a20.72 20.72 0 014.22-.85c.86-.1 1.84-.14 2.93-.14 3.2 0 5.4.92 6.62 2.76 1.22 1.83 1.43 4.34.64 7.53l-2.8 11.5h-6.1l2.7-11.26c.17-.7.3-1.38.4-2.05.1-.65.09-1.23-.02-1.74-.1-.48-.37-.9-.76-1.21-.4-.31-1-.47-1.82-.47-.81 0-1.62.09-2.42.25l-3.97 16.48h-6.11l4.96-20.33z"/>
	</symbol>
	<symbol id="ecopayz" viewBox="0 0 137 32">
		<path d="M23.6 0C10.6 0 0 6.1 0 13.7c0 3.2 1.9 6.1 5.1 8.5a10 10 0 01-2.5-6.4C2.6 8 13 1.6 25.6 1.6c8.3 0 15.5 2.6 19.6 6.6C41.5 3.4 33.2 0 23.6 0z"/>
		<path fill="currentColor" d="M21.5 17.6a4 4 0 002.3-.6 2.2 2.2 0 001-2c0-1.5-.5-3-1.5-4.3A9.6 9.6 0 0015.6 7a9.3 9.3 0 00-8.9 5.7 8.7 8.7 0 00-.7 3.5 8.4 8.4 0 002.8 6.4 10 10 0 007 2.6c1.5 0 3-.2 4.4-.6a7 7 0 003.5-2.1c.4-.4.6-1 .7-1.5 0-1.4-.8-2-2.3-2-.3 0-1.1.2-2.5.8-1.1.5-2.3.8-3.5.8-1 0-2-.2-2.9-.7a3 3 0 01-1.4-2.3h9.7zM13 12c.7-.5 1.6-.8 2.5-.8 1 0 1.8.3 2.5.8a3 3 0 011.1 2.2h-7.4c.1-.8.6-1.6 1.3-2.2zM28 22.5c1.7 1.8 4 2.7 6.9 2.7 1.4 0 2.9-.3 4.2-.8 1.6-.7 2.4-1.6 2.4-2.6 0-.6-.2-1.2-.6-1.6a2.1 2.1 0 00-1.6-.6 5 5 0 00-1.7.4c-.7.2-1.4.4-2.2.4a4 4 0 01-3.1-1.3c-.7-.9-1-2-1-3 0-1.1.3-2.2 1-3a3.6 3.6 0 012.9-1.4c.8 0 1.5.2 2.3.4.5.2 1.1.4 1.7.4l.9-.1.8-.5a2 2 0 00.6-1.6c0-1.1-.7-2-2.3-2.6-1.3-.5-2.6-.7-4-.6-3 0-5.3.8-7 2.5s-2.7 3.9-2.7 6.5.8 4.7 2.5 6.4zM44.3 22.6c1.8 1.8 4.2 2.7 7 2.7s5.2-1 7-2.7a8.8 8.8 0 002.6-6.5 8.8 8.8 0 00-2.7-6.5 9.4 9.4 0 00-7-2.6c-2.7 0-5 .9-6.8 2.6a8.8 8.8 0 00-2.7 6.5 8.6 8.6 0 002.6 6.5zm4.1-9.4a3.4 3.4 0 012.9-1.4 3.4 3.4 0 012.8 1.4c.7.9 1 1.9 1 3 0 1-.3 2-1 2.8a3.3 3.3 0 01-2.8 1.4 3.3 3.3 0 01-2.8-1.4c-.7-.8-1-1.8-1-2.9 0-1 .3-2 1-3z"/>
		<path d="M68.8 6.6h2.6c2.6 0 4 1 4 3s-1.4 3-4 3h-2.6v-6zm0 14.7v-4h4c2.7 0 4.9-.6 6.5-2s2.4-3.3 2.4-5.7A7 7 0 0079 3.7c-1.6-1.3-3.9-2-6.7-2h-5.2c-1.6 0-2.6.3-3.2.9-.6.5-.9 1.5-.9 2.8v15.9c0 2.5 1 3.7 3 3.7s2.8-1.2 2.8-3.7zM88.8 13.3a3.3 3.3 0 012.7-1.3c.6 0 1 0 1.6.3s.9.6 1.2 1c.6.8.9 1.8.8 2.8 0 1-.2 2-.8 2.8a3.2 3.2 0 01-2.8 1.3c-.5 0-1 0-1.5-.3s-1-.6-1.3-1c-.6-.8-.9-1.8-.8-2.8 0-1 .3-2 .9-2.8zM98 25c1.8 0 2.8-1.2 2.8-3.7V11c0-2.5-1-3.7-2.8-3.7A3 3 0 0095.3 9a6 6 0 00-4.5-1.8 8.3 8.3 0 00-6.4 2.8 9 9 0 00-2.4 6.2 9 9 0 005.1 8.3 8 8 0 003.5.7c2 0 3.6-.6 4.8-1.9.5 1.2 1.4 1.8 2.7 1.8zM114 9.3l-3.4 8.2-3.3-7.7a6 6 0 00-1-1.8 2.5 2.5 0 00-1.9-.7c-.7 0-1.4.2-2 .7l-.5.8-.2 1c0 .5.1 1 .3 1.4l5.7 12-2.3 4.6a4 4 0 00-.5 1.7c0 .4 0 .7.2 1l.6.8a3 3 0 002 .7c1 0 1.9-.7 2.5-2l8.7-18.5c.3-.5.4-1.1.4-1.8 0-1.6-.9-2.4-2.8-2.4-1 0-1.9.7-2.4 2zM133.3 20h-5.6l7.5-8.7c.8-.9 1.1-1.6 1.1-2.2a1.2 1.2 0 00-.8-1.3l-2.7-.3h-9.1c-2.4 0-3.6.8-3.6 2.3s1.2 2.4 3.5 2.4h5l-7.8 9a3 3 0 00-.9 2c0 1 1 1.5 3 1.6h10.3c2.4 0 3.6-.8 3.6-2.4 0-1.6-1.2-2.4-3.5-2.4z"/>
	</symbol>
	<symbol id="epay" viewBox="0 0 89 32">
		<path fill="currentColor" d="M11.8 23.3c6.2 0 11.6-4.6 11.6-11.6S18 0 11.8 0 0 4.7 0 11.7c0 7 5.4 11.6 11.7 11.6zm0-4c-4.2 0-7.3-3.4-7.3-7.6S7.5 4 11.8 4c4.1 0 7.2 3.4 7.2 7.7s-3 7.6-7.2 7.6z"/>
		<path d="M14.1 10.5c-.1-.7-.4-1.2-.7-1.6-.3-.4-.9-.5-1.6-.5-.5 0-.9 0-1.2.2l-.7.6-.4.7-.1.7H14v-.1zm-4 3.9c.4.4 1 .6 1.9.6.6 0 1.1-.1 1.5-.4s.4-.6.5-1h3c-.5 1.3-1.1 2.2-2 2.7s-1.9.8-3.1.8c-.9 0-1.6-.1-2.3-.4s-1.2-.6-1.7-1c-.5-.6-.9-1.1-1.1-1.8s-.4-1.4-.4-2.2c0-.8.1-1.5.4-2.2a5 5 0 012.9-2.9c.6-.3 1.4-.4 2.2-.4.9 0 1.7.2 2.4.5s1.2.8 1.6 1.4c.5.6.8 1.2 1 2 .2.7.3 1.5.2 2.3H9.4c0 .9.2 1.6.7 2zm24.5-9.1a6.1 6.1 0 00-4.2 2.6 6.8 6.8 0 00-.8 5.7A6.1 6.1 0 0040.8 15a6.7 6.7 0 00-2-8.9 6.2 6.2 0 00-4.2-1zm-5-2a10 10 0 0116 7c.4 2.6-.3 5.3-1.8 7.4a10 10 0 01-6.3 4.2 9 9 0 01-6.2-1c-.8-.5-1.4-1-2-1.6v12.3h-3.9V12.8c0-1.4.1-2.8.5-4.2.6-2.1 1.9-4 3.6-5.3zm26.6 2a6.2 6.2 0 00-4.1 3.2c-.9 1.7-1 3.8-.3 5.6a6 6 0 003 3.4c1.4.7 3 .8 4.5.4a6 6 0 003.3-2.6 7 7 0 00.8-5.6 6.3 6.3 0 00-3.5-4 6 6 0 00-3.7-.4zM50 4.8a10 10 0 016.7-3.5 10 10 0 019.3 5c1.2 2 1.9 4.2 2.7 6.4l3 8.7h-4.1l-1.7-4.7c-1 2-2.7 3.8-4.9 4.7a10 10 0 01-11.2-3c-1.6-2-2.5-4.7-2.4-7.3.1-2.3 1-4.6 2.6-6.3z"/>
		<path d="M72.6 2h3.9v10.8c0 1.3.2 2.6 1 3.7a4 4 0 002.8 1.6c1.3.2 2.9-.2 3.8-1.3 1.1-1.2 1.4-3 1.4-4.5V2h3.8v16.3c0 2.5 0 5-1 7.3-1.4 3-4 5-7 6-3.7 1.2-8 0-10.7-2.7l-1.3-1.5 3-2.5a7.6 7.6 0 004.6 3.1c3.4.7 7-1.5 8.1-4.8.4-1 .5-2.1.6-3.2a7.4 7.4 0 01-4.2 2c-2.4.4-4.9-.4-6.6-2.2a7 7 0 01-1.8-3.4c-.4-1.4-.3-3-.4-4.5V2z"/>
	</symbol>
	<symbol id="maestro" viewBox="0 0 41 32">
		<path d="M12.51 31.79v-2.12a1.26 1.26 0 00-1.32-1.33 1.31 1.31 0 00-1.2.6 1.24 1.24 0 00-1.11-.6 1.11 1.11 0 00-1 .5v-.42h-.73v3.37h.74v-1.87a.79.79 0 01.83-.9c.5 0 .74.32.74.9v1.87h.74v-1.87a.8.8 0 01.49-.84.8.8 0 01.34-.05c.5 0 .74.31.74.88v1.88h.74zm4.15-1.68v-1.68h-.75v.4a1.29 1.29 0 00-1.06-.49 1.78 1.78 0 00-1.77 1.76 1.76 1.76 0 002.36 1.65c.19-.09.35-.22.47-.38v.41h.74v-1.67zm-2.74 0a1.02 1.02 0 011.26-.94 1.02 1.02 0 01.7 1.4 1.01 1.01 0 01-.94.61 1.01 1.01 0 01-1.03-1.07zm18.47-1.77c.24 0 .48.05.7.14a1.7 1.7 0 01.96.93c.19.45.19.96 0 1.41a1.7 1.7 0 01-.95.93 2 2 0 01-1.46 0 1.75 1.75 0 01-.95-2.34 1.72 1.72 0 01.95-.93c.24-.1.49-.15.74-.15v.02zm0 .71c-.15 0-.29.02-.42.08a.99.99 0 00-.56.57c-.11.28-.11.6 0 .88.05.13.12.25.22.35.1.1.21.17.34.22a1.16 1.16 0 001.19-.22c.1-.1.17-.22.22-.35.11-.28.11-.6 0-.88a1.02 1.02 0 00-.22-.35c-.1-.1-.22-.17-.35-.22-.14-.06-.28-.1-.43-.1v.02zm-11.73 1.06c0-1.06-.66-1.77-1.6-1.77a1.76 1.76 0 10.04 3.53c.5.02 1-.15 1.39-.47l-.36-.55c-.28.23-.62.35-.98.36a.94.94 0 01-1.01-.83h2.5c.02-.09.02-.18.02-.27zm-2.52-.3a.87.87 0 01.89-.81.85.85 0 01.78.5c.05.1.07.2.07.31h-1.74zm5.61-.53A2.19 2.19 0 0022.7 29c-.4 0-.64.15-.64.4s.25.29.57.33l.35.05c.74.1 1.19.41 1.19 1s-.57 1.1-1.54 1.1a2.44 2.44 0 01-1.47-.43l.36-.57c.32.24.72.36 1.12.35.5 0 .78-.15.78-.41 0-.19-.2-.3-.6-.35l-.35-.05c-.76-.1-1.17-.45-1.17-1 0-.66.55-1.07 1.42-1.07.48-.02.96.1 1.37.35l-.33.6zm3.54-.19h-1.2v1.52c0 .35.12.56.5.56.22 0 .44-.07.64-.19l.21.63c-.27.17-.6.26-.92.26-.87 0-1.17-.46-1.17-1.24v-1.54h-.69v-.67h.69V27.4h.74v1.02h1.2v.67zm2.55-.75c.18 0 .35.03.52.09l-.22.7a1.2 1.2 0 00-.46-.08c-.49 0-.71.31-.71.87v1.88h-.74v-3.36h.73v.4a1 1 0 01.9-.49l-.02-.01zm5.09 2.96a.35.35 0 01.32.2c.02.04.03.08.03.13s-.01.09-.03.13c-.02.04-.04.07-.08.1l-.1.08a.35.35 0 01-.45-.18.33.33 0 01.07-.37c.06-.05.14-.09.22-.1h.02zm0 .6a.25.25 0 00.18-.08c.03-.03.06-.07.07-.11s.01-.09 0-.13c0-.04-.02-.08-.05-.11s-.06-.06-.1-.08a.26.26 0 00-.2 0 .26.26 0 00-.09.06.26.26 0 000 .35l.09.06a.2.2 0 00.1.02v.01zm.02-.43c.03 0 .07.01.1.03l.02.03v.08l-.02.03a.12.12 0 01-.07.03l.1.12H35l-.1-.12h-.03v.12h-.07v-.33l.15.01zm-.08.06v.09H35v-.02-.01-.02-.01h-.04l-.08-.03z"/>
		<path fill="currentColor" fill-opacity="0.5" d="M26.23 2.75H15.08V22.7h11.15V2.75z"/>
		<path fill="currentColor" d="M15.79 12.72a12.62 12.62 0 014.86-9.97A12.78 12.78 0 001.98 5.99 12.65 12.65 0 007.2 24.13a12.8 12.8 0 0013.44-1.43 12.68 12.68 0 01-4.86-9.97z"/>
		<path d="M40.06 20.58v-.4h.16v-.08h-.42v.09h.17v.4h.09zm.81 0v-.5h-.12l-.15.36-.15-.35h-.13v.5h.1v-.38l.13.32h.1l.13-.32v.38h.1zm.4-7.86a12.65 12.65 0 01-7.17 11.41 12.8 12.8 0 01-13.44-1.43 12.69 12.69 0 003.58-15.52 12.71 12.71 0 00-3.58-4.43 12.78 12.78 0 0118.67 3.24 12.64 12.64 0 011.95 6.73z"/>
	</symbol>
	<symbol id="mastercard" viewBox="0 0 41 32">
		<path d="M7.5 31.89v-2.12c0-.81-.5-1.34-1.34-1.34-.43 0-.89.14-1.2.6-.25-.4-.6-.6-1.13-.6-.36 0-.7.1-.99.49v-.42H2.1v3.39h.74V30c0-.6.32-.88.81-.88s.74.32.74.88v1.88h.74V30c0-.6.36-.88.82-.88.49 0 .74.32.74.88v1.88h.8zm10.98-3.4h-1.2v-1.02h-.74v1.03h-.67v.67h.67v1.55c0 .78.32 1.24 1.16 1.24.32 0 .67-.11.92-.25l-.21-.64c-.21.14-.46.18-.64.18-.35 0-.5-.21-.5-.56v-1.52h1.2v-.67zm6.28-.06a1 1 0 00-.88.49v-.42h-.74v3.38h.74v-1.9c0-.57.25-.88.7-.88.15 0 .32.03.46.07l.22-.7c-.15-.04-.36-.04-.5-.04zm-9.5.35a2.42 2.42 0 00-1.37-.35c-.85 0-1.41.42-1.41 1.09 0 .56.42.88 1.16.99l.35.03c.4.07.6.18.6.36 0 .24-.28.42-.77.42s-.89-.18-1.13-.35l-.36.56c.4.28.92.43 1.45.43.99 0 1.55-.46 1.55-1.1 0-.6-.46-.92-1.16-1.02l-.35-.04c-.32-.03-.57-.1-.57-.32 0-.24.25-.38.64-.38.42 0 .84.17 1.06.28l.31-.6zm19.7-.35a1 1 0 00-.88.49v-.42h-.74v3.38h.74v-1.9c0-.57.25-.88.7-.88.15 0 .32.03.47.07l.2-.7c-.13-.04-.35-.04-.49-.04zm-9.46 1.76c0 1.02.7 1.77 1.8 1.77.5 0 .85-.11 1.2-.4l-.35-.6c-.28.22-.56.33-.88.33-.6 0-1.03-.43-1.03-1.1 0-.63.43-1.06 1.03-1.1.31 0 .6.11.88.33l.35-.6c-.35-.29-.7-.4-1.2-.4-1.1 0-1.8.75-1.8 1.77zm6.85 0v-1.7h-.74v.43c-.25-.32-.6-.5-1.06-.5-.95 0-1.7.75-1.7 1.77s.75 1.77 1.7 1.77c.5 0 .85-.18 1.06-.5v.43h.74v-1.7zm-2.72 0c0-.6.4-1.1 1.03-1.1.6 0 1.02.47 1.02 1.1 0 .6-.42 1.1-1.02 1.1-.64-.04-1.03-.5-1.03-1.1zm-8.86-1.76c-.99 0-1.7.7-1.7 1.76s.71 1.77 1.74 1.77c.5 0 .99-.15 1.38-.46l-.36-.53c-.28.21-.63.35-.99.35-.46 0-.91-.21-1.02-.81h2.5v-.28c.04-1.1-.6-1.8-1.55-1.8zm0 .63c.46 0 .78.28.85.81h-1.77c.07-.46.4-.8.92-.8zm18.4 1.13v-3.04h-.75v1.77c-.24-.32-.6-.5-1.06-.5-.95 0-1.69.75-1.69 1.77s.74 1.77 1.7 1.77c.49 0 .84-.18 1.05-.5v.43h.74v-1.7zm-2.72 0c0-.6.38-1.1 1.02-1.1.6 0 1.02.47 1.02 1.1 0 .6-.42 1.1-1.02 1.1-.64-.04-1.02-.5-1.02-1.1zm-24.79 0v-1.7h-.74v.43c-.24-.32-.6-.5-1.06-.5-.95 0-1.69.75-1.69 1.77s.74 1.77 1.7 1.77c.49 0 .84-.18 1.05-.5v.43h.74v-1.7zm-2.75 0c0-.6.39-1.1 1.02-1.1.6 0 1.03.47 1.03 1.1 0 .6-.43 1.1-1.03 1.1-.63-.04-1.02-.5-1.02-1.1z"/>
		<path fill="currentColor"  fill-opacity="0.5" d="M15.02 2.76h11.12v19.98H15.02V2.76z"/>
		<path fill="currentColor" d="M15.72 12.75c0-4.06 1.91-7.66 4.84-9.99a12.7 12.7 0 100 19.98 12.69 12.69 0 01-4.84-9.99z"/>
		<path d="M41.14 12.75a12.7 12.7 0 01-20.54 10 12.74 12.74 0 000-19.98 12.72 12.72 0 0120.55 9.99z"/>
	</symbol>
	<symbol id="megaphone" viewBox="0 0 90 32">
		<path d="M9 8v8.3c0 .4-.3.6-.7.6h-1V24H8A8 8 0 009 8zm-.2 12.4a1 1 0 01-1-1 1 1 0 012 0c0 .5-.4 1-1 1zm2.4 0a1 1 0 01-1-1 1 1 0 012 0c0 .5-.5 1-1 1zm2.3 0a1 1 0 01-1-1 1 1 0 012 0c0 .5-.4 1-1 1z"/>
		<path d="M8 8a8 8 0 00-1.7 15.8v-7.2c0-.3.3-.6.6-.6h1l.1-.1zm-1.5 6.6a1 1 0 01-1-1c0-.6.4-1 1-1 .5 0 1 .5 1 1s-.5 1-1 1zm81.7-2.2v3h-4v-3h-2v8h2V17h4v3.3h2v-8zm-33.3.9c-.4-.7-1-1.1-1.7-1.1s-1.3.4-1.6 1l-3.3 7.2h2.1l.7-1.7h4.2l.7 1.7h2.1zM51.8 17l1.2-3H53.3l1.2 3zM31 10.9c-1 0-1.5.5-2 1.5l-2.6 6-2.5-6c-.5-1-1-1.5-2-1.5s-1.8.6-1.8 2v7.4h2v-7.2l2.6 6c.3.9 1 1.4 1.7 1.4.9 0 1.5-.5 1.8-1.4l2.6-6v7.3h2v-7.5c0-1.3-.9-2-1.8-2zm5.3 7.8l-.1-.2v-1.4h5v-1.7h-5v-1.2l.1-.2h5v-1.7h-6c-.7 0-1.1.6-1.1 1.2v5.6c0 .6.5 1.2 1.2 1.2h5.9v-1.7h-5zm8.3 1.7v-6.1l.2-.2h5v-1.7h-6c-.7 0-1.1.5-1.1 1.1v6.8h2zm36.2-4c0-2.8-1.2-4.1-4.2-4.1h-.7c-3 0-4.3 1.3-4.3 4 0 2.8 1.3 4.2 4.3 4.2h.6c3.1 0 4.3-1.4 4.3-4.1zm-4.3 2.4H76c-1.7 0-2.3-.8-2.3-2.4 0-1.6.5-2.4 2.3-2.4h.6c1.7 0 2.4.8 2.4 2.4 0 1.6-.7 2.4-2.4 2.4zM66.1 11h-4c-3 0-4.1 1.5-4.1 4.1v1.1c.4 1.9 1.5 3 4.3 3h.9v1h2v-1h.8c2.8 0 3.9-1.1 4.2-3v-1.1c0-2.6-1.2-4.1-4.1-4.1zm-3 6.5h-1c-1.3 0-1.8-.5-2-1.3l-.1-1.1c0-1.7.8-2.4 1.9-2.4H63v4.8zm5-1.2c-.2.8-.7 1.3-2 1.3h-1v-4.9h1.3c1 0 1.9.7 1.9 2.4l-.1 1.2z"/>
	</symbol>
	<symbol id="mir" viewBox="0 0 113 32">
		<path d="M30.5 0S26 0 24.9 4.2L20.7 19h-.9L15.6 4.2C14.5 0 10 0 10 0H0v32h10V13h.9l5.9 19h7l5.8-19h.9v19h10V0h-10zm36.7 0s-3 .3-4.3 3.4L55.7 19H55V0H45v32h9.4s3.1-.3 4.5-3.4l7-15.6h.8v19h10.1V0h-9.5zm14 14.5V32h10V21.8h11c4.7 0 8.7-3 10.2-7.3H81.2z"/>
		<path fill="#7e7e7e" d="M102.1 0H79.8a16 16 0 0015.8 13.1h17.2c.2-.7.2-1.4.2-2.2 0-6-4.8-10.9-10.9-10.9z"/>
	</symbol>
	<symbol id="mts" viewBox="0 0 129 32">
		<path d="M11.4 0C9 0 6.2 2.3 4 6.2 1.4 10.2 0 15 0 19.4 0 25.7 3.5 32 11.4 32c8 0 11.5-6.3 11.5-12.6 0-4.3-1.5-9.3-4-13.2C16.7 2.3 14 0 11.5 0zm61.7 9.4h8v20.9h8.6V9.4h8V1.7H73.1v7.7zm42.9 0h12.6V1.7H116c-11.6 0-17.7 5.8-17.7 14.3s6.1 14.3 17.7 14.3h12.6v-7.7H116c-5.4 0-8.9-2-8.9-6.6s3.5-6.6 8.9-6.6zM55.7 1.7l-4.6 17-4.5-17H31.4v28.6H40V7l6.2 23.3h9.9L62.3 7v23.3h8.6V1.7H55.7z"/>
	</symbol>
	<symbol id="muchbetter" viewBox="0 0 148 32">
		<path fill="currentColor" d="M10.39 25.84c-.67 0-1.34-.38-1.71-.97L.35 10.51a2.06 2.06 0 01.74-2.76 2.05 2.05 0 012.75.75l8.34 14.29c.52.96.22 2.15-.75 2.75-.37.22-.67.3-1.04.3z"/>
		<path d="M31.36 18.02c0-1.04-.37-2-.96-3.05a7.28 7.28 0 00-3.35-3.35 6.96 6.96 0 00-3.87-.74c.45-.97.75-1.94.82-2.98.15-1.49-.37-2.83-1.26-4.46a7.47 7.47 0 00-2.16-2.38c-.9-.53-1.79-.9-2.83-.97s-2.08 0-3.2.22c-.37.08-.74.22-1.11.3l-.45.22c-.67.23-2.38 1.2-2.97 1.57l-2.9 1.7h-.08C6 4.79 5.63 6.13 6.23 7.24a2.24 2.24 0 003.04.82h.08l4.68-2.68c.45-.22.9-.37 1.34-.44s.9 0 1.34.07c.45.15.82.37 1.27.67.37.3.66.67.96 1.12.23.44.45.89.52 1.41s.08.97 0 1.41c-.07.45-.22.82-.52 1.2-.22.37-.6.66-.96.89l-2.83 1.71-1.19.67-.74.45a2.08 2.08 0 00-.75 2.9 2.12 2.12 0 001.86 1.04c.37 0 .74-.07 1.04-.3l1.56-.89 4.02-2.16c.45-.22.82-.37 1.26-.37s.9.07 1.27.22c.44.15.82.38 1.19.67s.67.67.97 1.12c.22.45.37.9.44 1.34s.08.97-.07 1.41c-.08.45-.3.82-.6 1.27-.3.37-.67.67-1.11.97l-6.92 3.94H17l-1.27.74-2.45 1.34c-1.04.6-1.49 1.94-.9 2.98.38.74 1.12 1.2 1.94 1.2.37 0 .75-.08 1.04-.3l10.79-5.81c1.04-.6 2-1.34 2.82-2.16s1.42-1.71 1.79-2.6c.44-1.05.67-2.01.6-3.06zM92.94 21.9c-.44 0-.96 0-1.33-.38s-.38-.9-.38-1.34V9.02c0-.45 0-.97.38-1.34s.89-.37 1.33-.37h4.17c2.9 0 4.54 1.63 4.54 4.09a3.34 3.34 0 01-1.86 3.05c.89.45 2 1.34 2 3.27 0 2.76-1.85 4.25-4.46 4.25h-4.39v-.08zm1.2-12.06v3.35h2.82c1.19 0 1.86-.67 1.86-1.72s-.67-1.7-1.86-1.7h-2.83v.07zm2.97 9.52c1.26 0 1.93-.82 1.93-1.78s-.6-1.79-1.93-1.79h-2.98v3.57h2.98zM106.33 17.35c0 1.42.82 2.38 2.38 2.38.67 0 1.34-.14 1.86-.59.44-.3.67-.37.97-.37.52 0 1.04.52 1.04 1.11 0 .53-.45.97-1.04 1.34-.75.53-1.71.75-2.9.75-2.53 0-4.99-1.12-4.99-5.5 0-3.5 1.86-5.52 4.69-5.52 2.9 0 4.53 2.09 4.68 4.77 0 .44-.07.89-.37 1.19-.37.37-.74.37-1.19.37h-5.13v.07zm3.87-2.97c-.3-.67-.9-1.12-1.79-1.12s-1.48.45-1.78 1.12c-.15.37-.23.67-.23 1.19h4.1a4.6 4.6 0 00-.3-1.2zM115.63 13.56h-.3c-.52 0-.67 0-.9-.15a.95.95 0 01-.51-.9c0-.37.14-.74.52-.89.22-.15.37-.15.89-.15h.3v-1.41c0-.67 0-.9.15-1.2.22-.36.59-.66 1.19-.66.52 0 .96.22 1.19.67.14.3.14.52.14 1.19v1.41h.82c.52 0 .67 0 .9.15.3.15.52.45.52.9 0 .37-.15.74-.52.89-.23.15-.38.15-.9.15h-.82v5.13c0 .52.15.9.9.97.37 0 .6.07.81.15.3.15.53.44.53.97 0 .44-.23.81-.53.96-.22.15-.59.15-1.11.15h-.15c-2.23 0-3.12-1.49-3.12-3.05v-5.28zM122.84 13.56h-.3c-.52 0-.67 0-.89-.15a.95.95 0 01-.52-.9c0-.37.15-.74.52-.89.22-.15.37-.15.9-.15h.29v-1.41c0-.67 0-.9.15-1.2.22-.36.6-.66 1.19-.66.52 0 .96.22 1.19.67.15.3.15.52.15 1.19v1.41h.82c.52 0 .66 0 .89.15.3.15.52.45.52.9 0 .37-.15.74-.52.89-.23.15-.37.15-.9.15h-.81v5.13c0 .52.15.9.9.97.36 0 .58.07.8.15.3.15.53.44.53.97 0 .44-.22.81-.52.96-.22.15-.6.15-1.12.15h-.14c-2.24 0-3.13-1.49-3.13-3.05v-5.28zM131.47 17.35c0 1.42.82 2.38 2.38 2.38.67 0 1.34-.14 1.86-.59.44-.3.67-.37.96-.37.52 0 1.05.52 1.05 1.11 0 .53-.45.97-1.05 1.34-.74.53-1.7.75-2.9.75-2.53 0-4.98-1.12-4.98-5.5 0-3.5 1.86-5.52 4.69-5.52 2.9 0 4.53 2.09 4.68 4.77 0 .44-.07.89-.37 1.19-.37.37-.74.37-1.19.37h-5.13v.07zm3.87-2.97c-.3-.67-.9-1.12-1.79-1.12s-1.49.45-1.78 1.12c-.15.37-.23.67-.23 1.19h4.1c-.16-.52-.16-.82-.3-1.2zM145.38 11.03c.81 0 1.33.15 1.86.52.37.3.66.67.66 1.12 0 .37-.14.74-.37.96s-.6.37-.89.37c-.3 0-.52-.07-.9-.3-.3-.14-.66-.3-1.03-.3-.9 0-1.79.6-1.79 1.94v4.77c0 .67 0 .89-.15 1.19-.22.37-.6.67-1.19.67s-.96-.23-1.19-.67c-.15-.3-.15-.52-.15-1.2V12.9c0-.67 0-.9.23-1.2.22-.37.67-.59 1.11-.59.37 0 .67.15.82.3.22.22.37.44.37.82.6-.6 1.56-1.2 2.6-1.2z"/>
		<path fill="currentColor" d="M46.98 18.02l-2.38-4.68v6.54c0 .67 0 .9-.22 1.27s-.67.67-1.27.67c-.59 0-1.04-.3-1.26-.67-.15-.37-.22-.6-.22-1.27V8.94c0-.6.07-1.04.44-1.34.23-.22.6-.37.97-.37s.6.08.82.23c.3.14.52.52.74.89l3.65 6.92 3.64-6.92c.15-.37.45-.67.74-.9a1.5 1.5 0 011.79.15c.37.38.45.75.45 1.34v11.02c0 .67 0 .9-.23 1.26s-.67.67-1.26.67c-.6 0-1.04-.3-1.27-.67-.14-.37-.22-.6-.22-1.26V13.4l-2.16 4.61c-.37.67-.66.97-1.33.97s-1.05-.22-1.42-.97z"/>
		<path fill="currentColor" d="M53.53 21.97c-.6 0-1.12-.3-1.34-.75-.23-.37-.23-.6-.23-1.26v-6.1l-2.15 4.24c-.38.67-.67 1.04-1.49 1.04-.74 0-1.12-.37-1.49-1.04l-2.15-4.24v6.1c0 .67 0 .9-.23 1.26-.22.45-.74.75-1.34.75s-1.11-.3-1.33-.75c-.23-.37-.23-.67-.23-1.26V8.94c0-.6.08-1.04.45-1.48.3-.3.6-.45 1.04-.45.37 0 .67.07.9.22.36.22.59.67.74.9l3.49 6.7 3.5-6.7c.15-.23.37-.68.74-.9.22-.15.52-.22.9-.22.44 0 .74.15 1.03.45.38.37.45.82.45 1.48v11.02c0 .67 0 .9-.22 1.26.07.45-.45.75-1.04.75zm-1.34-9.08v7.07c0 .67 0 .9.15 1.19.22.37.66.6 1.11.6.52 0 .9-.23 1.12-.6.15-.3.15-.52.15-1.2v-11c0-.6-.08-.97-.38-1.27a1.23 1.23 0 00-.89-.37c-.3 0-.52.07-.82.22-.22.15-.44.45-.66.82l-3.72 7.07-3.72-7.07c-.23-.37-.45-.67-.67-.82s-.45-.22-.82-.22c-.37 0-.67.15-.9.37-.29.3-.36.74-.36 1.26v11.02c0 .67 0 .9.15 1.19.22.37.67.6 1.11.6.52 0 .9-.23 1.12-.6.37-.3.37-.52.37-1.2V12.9l2.6 5.06c.38.74.67.96 1.27.96s.89-.22 1.26-.96l2.53-5.06zM61.26 21.9a3.54 3.54 0 01-2.53-.97c-.89-.9-1.11-1.86-1.11-3.06v-5.06c0-.67 0-.89.15-1.19.22-.37.59-.6 1.11-.6s.97.23 1.12.6c.15.3.15.52.15 1.2v4.68c0 1.42.89 1.94 1.78 1.94.82 0 1.79-.45 1.79-1.94v-4.69c0-.67 0-.89.14-1.19.23-.37.6-.6 1.12-.6s.97.23 1.12.6c.15.3.15.52.15 1.2v7.14c0 .67 0 .9-.23 1.19-.22.37-.67.6-1.11.6-.38 0-.67-.15-.82-.3-.22-.23-.3-.45-.37-.75-.45.82-1.49 1.2-2.46 1.2z"/>
		<path fill="currentColor" d="M61.26 22.04a3.86 3.86 0 01-2.6-.97c-.75-.74-1.12-1.7-1.12-3.12v-5.06c0-.67 0-.9.15-1.27.22-.44.67-.67 1.26-.67s1.04.23 1.27.67c.15.3.15.6.15 1.27v4.69c0 1.63 1.26 1.78 1.63 1.78s1.64-.15 1.64-1.78v-4.7c0-.66 0-.88.15-1.26.22-.44.67-.67 1.26-.67s1.04.23 1.27.67c.15.3.15.6.15 1.27v7.14c0 .67 0 .9-.23 1.27s-.67.67-1.26.67c-.37 0-.67-.15-.9-.37-.22-.15-.3-.38-.37-.6a3.14 3.14 0 01-2.45 1.04zm-2.23-10.86c-.52 0-.9.22-1.04.6-.15.21-.15.51-.15 1.1v5.07c0 1.34.3 2.23 1.04 2.9.6.6 1.41.9 2.45.9.97 0 1.94-.38 2.6-1.12l.16-.15.07.22c.07.37.15.52.37.74.22.15.45.3.75.3.44 0 .89-.22 1.04-.52s.15-.45.15-1.12v-7.14c0-.67 0-.9-.15-1.12-.15-.37-.6-.59-1.04-.59s-.9.22-1.05.6c-.14.22-.14.52-.14 1.11v4.69c0 1.49-.97 2-1.86 2s-1.86-.51-1.86-2v-4.69c0-.67 0-.9-.15-1.12-.37-.44-.75-.67-1.2-.67zM75.47 11.55c.59.3 1.26.82 1.26 1.49 0 .37-.15.6-.37.89-.15.22-.52.37-.82.37s-.52-.07-.9-.37c-.44-.3-.74-.45-1.26-.45-.6 0-1.11.23-1.48.67-.38.52-.6 1.2-.6 2.31s.15 1.86.6 2.38c.37.45.89.67 1.48.67.52 0 .82-.15 1.27-.45.37-.3.6-.37.89-.37s.6.15.82.38c.22.22.37.52.37.89 0 .67-.67 1.19-1.27 1.49-.59.37-1.26.52-2.08.52-2.08 0-4.76-1.12-4.76-5.44s2.6-5.43 4.76-5.43c.82-.07 1.42.08 2.09.45z"/>
		<path fill="currentColor" d="M73.3 22.04c-.88 0-2.15-.22-3.26-1.11-1.04-.97-1.64-2.46-1.64-4.4 0-2 .52-3.42 1.64-4.39a4.72 4.72 0 013.27-1.11c.82 0 1.49.15 2.16.52.6.3 1.33.82 1.33 1.56 0 .37-.14.67-.37.97-.22.22-.6.37-.89.37s-.6-.07-.97-.37c-.44-.3-.74-.45-1.19-.45-.6 0-1.04.23-1.4.67-.38.52-.6 1.2-.6 2.24 0 1.11.15 1.78.6 2.3.36.45.8.67 1.4.67.45 0 .82-.15 1.2-.44.37-.23.59-.45.96-.45.3 0 .67.15.9.37.3.3.36.6.36.97 0 .6-.44 1.12-1.33 1.64-.67.3-1.27.44-2.16.44zm.08-10.86c-1.41 0-4.6.52-4.6 5.28 0 4.84 3.19 5.36 4.6 5.36.82 0 1.42-.15 2.01-.52.82-.45 1.2-.9 1.2-1.42 0-.3-.16-.52-.38-.82-.15-.14-.45-.3-.75-.3s-.52.08-.81.38c-.45.37-.82.45-1.34.45-.67 0-1.2-.23-1.56-.75-.45-.52-.6-1.26-.6-2.38s.22-1.86.6-2.38c.37-.45.89-.74 1.56-.74.6 0 .89.14 1.34.44.37.22.6.37.81.37.3 0 .53-.15.75-.3.22-.22.37-.52.37-.81 0-.67-.74-1.2-1.19-1.42a4.2 4.2 0 00-2-.44zM87.22 21.22c-.23.38-.6.6-1.12.6s-.97-.23-1.11-.6c-.15-.3-.15-.52-.15-1.19v-4.69c0-1.41-.9-1.93-1.79-1.93s-1.78.45-1.78 1.93v4.7c0 .66 0 .89-.15 1.18-.23.38-.6.6-1.12.6s-.97-.23-1.11-.6c-.15-.3-.15-.52-.15-1.19V9.02c0-.67 0-.9.15-1.2.22-.36.6-.59 1.11-.59s.97.23 1.12.6c.15.3.15.52.15 1.19v3.12a3.4 3.4 0 012.6-1.11c1.04 0 1.93.37 2.53.97.89.89 1.11 1.86 1.11 3.05v5.06c-.07.6-.15.82-.3 1.11z"/>
		<path fill="currentColor" d="M86.1 21.97c-.6 0-1.04-.23-1.26-.67-.15-.3-.15-.6-.15-1.27v-4.69c0-1.63-1.27-1.78-1.64-1.78s-1.63.15-1.63 1.78v4.7c0 .66 0 .88-.15 1.26-.23.44-.67.67-1.27.67s-1.04-.23-1.26-.67c-.15-.3-.15-.6-.15-1.27V9.02c0-.67 0-.9.15-1.27.22-.44.67-.67 1.26-.67s1.04.23 1.27.67c.15.3.15.6.15 1.27v2.9a3.42 3.42 0 012.45-.97c1.04 0 1.93.37 2.6.97.74.74 1.12 1.71 1.12 3.13v5.06c0 .67 0 .89-.15 1.26-.3.37-.75.6-1.34.6zm-3.05-8.64c.9 0 1.86.52 1.86 2.01v4.7c0 .66 0 .88.15 1.1.15.38.6.6 1.04.6s.9-.22 1.04-.6c.15-.22.15-.51.15-1.1v-5.07c0-1.34-.3-2.23-1.04-2.9-.6-.6-1.41-.9-2.45-.9s-1.79.3-2.53 1.05l-.22.22V9.02c0-.67 0-.9-.15-1.12-.15-.37-.6-.6-1.04-.6-.53 0-.9.23-1.05.6-.14.22-.14.52-.14 1.12V20.1c0 .67 0 .89.14 1.11.15.37.6.6 1.05.6s.89-.23 1.04-.6c.15-.22.15-.52.15-1.11v-4.7c.07-1.56 1.04-2.08 2-2.08z"/>
	</symbol>
	<symbol id="neteller" viewBox="0 0 187 32">
		<path d="M164.6 13.7c-.9.6-2.5.9-4.3.9h-1.9l1.3-8.1h1.5c1.6 0 2.8.3 3.7.6.7.6 1.3 1.3 1.3 3.1s-.6 2.8-1.6 3.4zM47.1 23.9H31.9l.9-5.6h9.6l1-5.9H34l1-5.3h15.2L47.1 24zM173 2.5C170.4.9 167 .3 162.7.3h-11.5l-4.4 23.6h-15.2l.9-5.6h9l1.3-5.9h-9.4l1.3-5.3h9.3l1.2-6.8h-19.2l-4 22.4h-7.2L119.2.3H109l-4 22.4h-7L102.2.3h-10l-4.3 23.6H72.6l1-5.6h9l1.2-5.9h-9.3l.9-5.3H85L86.3.3h-60l-3.5 18.6L16.3.3H5.7L.1 30.8h10l3.4-19.3L20 30.8h35.8L60.1 7h5.6l-4.3 23.7h93.9l2.8-15 4.4 15h9.9l-4.7-12.2 1.3-.3c2.2-.6 4-1.5 5.3-3.1S176 11.5 176 9c0-2.8-.9-5-3-6.5zM181.1 27h2.2c0-.3 0-.3.3-.3v-.6c0-.3 0-.3-.3-.6H181V27zm-.6 2.8v-4.6l1.9-.4h1.2c0 .4.3.4.3.7.3 0 .3.3.3.6s0 .6-.3 1c0 .2-.6.2-1 .5h.4l.6.7 1 1.2h-1l-.6-1c0-.2-.3-.2-.3-.5-.3 0-.3-.4-.3-.4H181v2.2h-.6z"/>
		<path d="M178.6 27.3c0-.9.3-1.8 1-2.5.6-.6 1.5-1.2 2.4-1.2a4 4 0 014 3.4v.3c0 1.9-1.5 3.5-3.7 3.8a3.8 3.8 0 01-3.7-3.8zM182 23c-1.2 0-2.1.3-3 1.2s-1.3 2.2-1.3 3.4c.3 2.5 2.2 4.4 4.7 4 2.4 0 4.3-2 4.3-4.6s-2.2-4.3-4.7-4z"/>
	</symbol>
	<symbol id="payeer" viewBox="0 0 137 32">
		<path d="M19.6 11c0 6.6-3.8 10.4-10.3 10.4H6.7v10H.5V.5h9c6.3 0 10 4 10 10.5zm-6.4 0c0-3-1.3-4.5-3.9-4.5H6.8v9h2.5c2.5 0 3.9-1.5 3.9-4.5zm22.3 15.3H29l-1 5.1h-6.6L28.8.5h6.7L43 31.4h-6.5l-.9-5.1zm-1.3-6l-.7-3.5-1.3-8.5H32c-.2 2.5-.8 6.3-1.2 8.5l-.8 3.5h4.2zm16.9 2L43.7.5h6.5l2.6 8.6 1.3 5h.2l1.3-5.2L58.1.5h6.5l-7.3 21.8v9.1H51v-9.1z"/>
		<path fill="currentColor" d="M86.3 25.5v5.9H69.9V.5h16v6h-9.7v6.3H85v5.8h-8.8v6.9h10zm23.3 0v5.9H93.2V.5h16v6h-9.7v6.3h8.7v5.8h-8.7v6.9h10.1zM125 21h-2.2v10.3h-6.3V.5h9c6 0 9.7 3.8 9.7 10.3 0 4.2-1.5 7.3-4.3 9l5.9 11.7h-6.9l-5-10.4zm-2.2-6h2.5c2.2 0 3.4-1.4 3.4-4.3 0-2.8-1.2-4.3-3.4-4.3h-2.5v8.6z"/>
	</symbol>
	<symbol id="paysafecard" viewBox="0 0 184 32">
		<path d="M33.8 14.4c0-.6-.3-1-.8-1h-3.1c-.8 0-1.2.5-1.2 1.2V20c0 .8.5 1.2 1.3 1.2h2.8c.3 0 .6-.1.7-.3.3-.2.3-.4.3-.6v-6zm-9-.8c0-1.3.3-2.4.9-3a4 4 0 011.2-.8c.5-.2 1-.4 1.4-.4H34c2.5 0 3.8 1.4 3.8 4v8.2c0 1-.4 1.8-1.1 2.5-.7.7-1.6 1-2.6 1.1h-5.4v5.9h-4V13.6zM45 20.4c0 .3.1.4.3.6l.7.2h3c.8 0 1.1-.2 1.2-.8v-1c0-.7-.4-1-1.1-1h-3c-.5 0-.7 0-.9.2l-.2.8v1zm5.2-6.1c0-.6-.4-.9-1.1-.9h-8v-4h9c2.6 0 4 1.3 4 3.8v8.3c0 1-.4 2-1 2.6-.7.7-1.5 1.1-2.6 1.1h-5.4c-2.7 0-4-1.2-4-3.6v-3.2c0-2.4 1.2-3.7 3.8-3.7h5.3v-.4zM65.3 27.1c.3 0 .6-.1.8-.3.2-.2.3-.4.3-.7v-.9h-5.1c-.7 0-1.2 0-1.6-.2a3.7 3.7 0 01-2.1-2.2 4 4 0 01-.3-1.6V9.4h4V20c0 .9.4 1.3 1 1.3h2.9c.3 0 .6-.1.8-.3.3-.2.4-.4.4-.7V9.4h4v17.4c0 1.3-.4 2.3-1 3-.7.9-1.6 1.3-2.8 1.3h-9.3v-4h8zM73.5 21.2h7c.7 0 1-.3 1-.7V20v-.4c-.2-.3-.4-.4-.6-.4h-3.5c-1 0-2-.4-2.7-1a3 3 0 01-1.2-2.3v-3c0-2.3 1.3-3.5 3.9-3.6h8.2v4h-7c-.8 0-1.2.3-1.2.8v.4c0 .5.4.7 1.3.7h3.5c.9 0 1.7.4 2.4 1 .6.7 1 1.6 1 2.5v3c0 .7-.4 1.5-1.2 2.4-.3.4-.7.6-1 .8l-1.6.2h-8.3v-4zM92.4 20.4c0 .3.1.4.3.6l.7.2h3c.8 0 1.1-.2 1.2-.8v-1c0-.7-.4-1-1.1-1h-3c-.5 0-.7 0-.9.2l-.2.8v1zm5.2-6.1c0-.6-.4-.9-1.1-.9h-8v-4h9c2.6 0 4 1.3 4 3.8v8.3c0 1-.4 2-1 2.6-.7.7-1.5 1.1-2.6 1.1h-5.4c-2.7 0-4-1.2-4-3.6v-3.2c0-2.4 1.2-3.7 3.8-3.7h5.3v-.4zM104.7 7.2c0-1 .5-2 1.3-2.6.7-.7 1.7-1 3-1h2.5v3.8H110c-.8 0-1.3.4-1.3 1.2v.8h2.8v4h-2.8v11.8h-4v-18zM122.8 14.2c0-.3 0-.5-.2-.6l-.7-.2H119c-.3 0-.6.1-.8.3-.3.2-.5.5-.5.8V16l5-1.9zM118 20v.2c0 .3 0 .6.3.8 0 .2.3.3.5.3h8.1v4h-8.6c-.8 0-1.4 0-1.9-.2s-.9-.4-1.3-.8-.7-.8-.8-1.3c-.2-.4-.3-1-.3-1.8v-8c0-2.4 1.3-3.6 3.8-3.7h5.4c2.5 0 3.7 1.4 3.8 3.9v3.1l-9 3.5zM135.3 25.2c-.6 0-1.2 0-1.7-.2a3.6 3.6 0 01-2.7-2.2c-.2-.6-.3-1.2-.3-2v-7.4c0-.6 0-1.1.2-1.6.1-.5.4-1 .8-1.3.5-.5 1-.8 1.5-1l1.7-.2h6.1v1h-6c-1 0-1.8.2-2.4.6-.6.5-1 1.3-1 2.4v7.4l.3 1.5c.2.5.4 1 .8 1.3l1.3.6 1.4.2h5.7v.9h-5.7zM156.6 15.5h-8a3 3 0 00-2.2 1c-.6.5-.9 1.3-.9 2.2v2.4c0 .5 0 .9.2 1.3 0 .4.3.7.7 1 .7.6 1.5.9 2.3.9h4.8c2 0 3-1.1 3-3.2v-5.6zm1 5.4l-.2 1.6c-.1.5-.4 1-.8 1.4a4 4 0 01-3 1.3h-4.8c-1.3 0-2.3-.4-3-1a3.8 3.8 0 01-1.2-3v-2.4c0-2.7 1.4-4.1 4.1-4.2h8v-1c0-.9-.3-1.7-.9-2.3l-1-.9a6 6 0 00-1.6-.1h-8.6v-1h8.2c.7 0 1.4 0 2 .2l.9.3.8.8c.7.9 1 2 1 3.2v7.1zM166.5 10.3c-2.2 0-3.3 1.2-3.3 3.5v11.4h-1V13.8c0-3 1.5-4.5 4.4-4.5h1v1h-1.1zM182.6 10.3H175c-.5 0-1 0-1.4.2-.5 0-1 .3-1.4.8-.4.4-.6.8-.7 1.2a4 4 0 00-.2 1.4v7.3c0 1.2.4 2 1 2.4l1.3.5 1.5.2h3.2a5 5 0 003-.9c.8-.5 1.2-1.4 1.3-2.7V10.3zm.9 10.5c0 3-1.7 4.5-4.9 4.4h-3.5c-.8 0-1.4 0-2-.2-.6-.1-1.2-.5-1.8-1l-.8-1.6c-.1-.5-.2-1.1-.1-1.7v-6.8c0-3 1.6-4.6 4.7-4.6h7.5v-5h.9v16.5z"/>
		<path fill="currentColor" d="M2.7 8.8a5 5 0 011-.3A6 6 0 019.4 4c3 0 5.4 2 6 4.6.8.2 1.6.6 2.1 1V8.2A8 8 0 009.5 1a8 8 0 00-8.1 8.7l1.3-.8z"/>
		<path fill="currentColor" d="M14.2 9.4H4.5c-.4 0-1 .2-1.4.4a4 4 0 00-1.2.7c-.6.7-1 1.8-1 3.1V21c0 1.4.4 2.4 1 3.1.3.3.7.6 1.2.8l1.4.3h9.7c2.6 0 3.8-1.4 3.9-4v-7.7c0-2.7-1.3-4-3.9-4z"/>
	</symbol>
	<symbol id="paytrust" viewBox="0 0 144 32">
		<path d="M117.9.6v6c0 .8 0 1 1 1h5.5c.6 0 1 .2.8.9-.2 1.4.4 2.6 1.5 3.6h-7c-1.8 0-1.8 0-1.8 1.8V17c0 2 1.4 3.3 3.4 3.4h2.6c.5 0 .7.2.7.8v3c0 .4 0 .8-.5.8L120 25a7.9 7.9 0 01-6.4-7.7V13c0-.6-.2-.7-.7-.7h-9.7c-.7 0-1.4.2-1.4 1 0 1 .6 1.2 1.4 1.2h4.3c3 0 5.3 2.3 5.3 5.2 0 3-2.4 5.5-5.3 5.5H95.2c-.7 0-1.1-.5-1.3-1-.5-.8-.9-1-1.8-.3a6.9 6.9 0 01-8.3.4c-2.8-1.8-3.8-4.5-3.5-7.6 0-1 .8-2 1.4-2.7.7-1.1 1.6-2 2.7-3 .4.4.2.7.2 1v5.4c0 2.2 1.3 3.6 3.2 3.6 1.8 0 3.3-1.7 3.3-3.7V8.6c0-.7.2-1 1-1h2.6c.7 0 .8.3.8.9v10.7c0 .9.1 1.2 1.2 1.2h10.8c.6-.1 1-.5 1-1s-.6-.8-1-.8H103c-3.3 0-5.7-2.4-5.7-5.5s2.3-5.6 5.3-5.6h10c1 0 1.1-.2 1.1-1v-6l4 .1zM43.5 31.2v-3.7c0-.5 0-.6.6-.6h2c1.5 0 2.8-1 3.4-2.5-.8 0-1.4.6-2.2.7-4 .3-7.8-2.7-8-6.7C39 14.9 39 11.6 39 8c0-.6.2-.6.7-.6h2.7c.7 0 1 .1 1 1v8.7c0 2.1 1.3 3.6 3.3 3.6 1.8 0 3.3-1.7 3.3-3.6V8.7c0-.8.1-1.2 1-1.2h2.7c.4 0 .7.1.7.7l-.1 15.2a8.5 8.5 0 01-5.8 7.8c-.4 0-1.1.3-2.3.3l-2.8-.3zM131.8 1c2 .8 2.6 2.6 1.6 4.4-.3.5-.3.6 0 1 1.7 1.6 1.4 4-.7 5-1.7.9-3.2.8-4.8 0-1.9-1.1-2.2-3.4-.6-5 .3-.2.6-.3.3-.8-1.2-2-.6-3.8 1.6-4.6.4-.3 1.7-.4 2.6 0zm-1.5 6c-1 0-2 .8-2 1.6s1 1.5 2 1.5 2-.7 2-1.5c.1-1-.8-1.7-2-1.7zm0-4.3c-.8 0-1.6.6-1.4 1.4 0 .8.7 1.2 1.4 1.2s1.3-.4 1.4-1.2c.1-.8-.6-1.4-1.4-1.4zM18.5 7a8.9 8.9 0 00-8.1-5.4C7.3 1.4 4 1.6 1 1.4V24.6h4c.5 0 .7-.1.7-.8v-3.1c0-.6.2-.9.9-.9h4c3 0 5.3-1.3 7-3.6 2.1-2.6 2.5-6 1-9.3zm-8.1 8.5h-4c-.7 0-.8-.2-.8-.7v-4-3.9c0-.6.1-.8.7-.7h4c2.5.1 4.6 2 4.6 4.5 0 2.7-2 4.7-4.5 4.8z"/>
		<path d="M90.5 1.7c-2.3.6-4.7 1.2-7 2-2 .7-3.7 1.4-5.5 2.4-.3.2-.8.2-1.3.2h-12c-.6 0-.9.1-.9 1v16.6c0 .8-.2 1-1 1h-2.5c-.9 0-1.2 0-1.2-1V7.8c0-1.1-.3-1.4-1.3-1.4-2.5.2-4.9 0-7.3 0-.8 0-1 0-1-1V2.6c0-.6.1-.8.8-.8h40.2zM37.6 16.2V24c0 .4-.2.7-.6.8s-.9 0-1.2-.4l-.8-1.2c-.4-.8-.8-.6-1.2-.2a8.2 8.2 0 01-8.5 1.6c-3.7-1.2-5.8-4.9-5.6-9 .2-5.5 4.4-9.2 9.6-8.7 1.8.1 3.2 1 4.6 2 .5.5.8.5 1.3 0S36 7.1 37 7.4c.8.4.6 1.3.6 2v6.7zM24.2 16c0 2.7 1.8 4.7 4.3 4.7 2.3 0 4.4-2.3 4.3-4.8 0-2.5-2.1-4.7-4.3-4.7-2.5.1-4.3 2-4.3 4.8z"/>
		<path d="M100.1 1.4l-2.7.9c-5.2 1.5-10 4-14.2 7.4-5.2 4.4-8.6 9.9-9.8 17-.6-2.6-1-4.8-1.9-7-1.4-4-3-7.6-6.3-10.5-.3-.4 0-.5.2-.6 1-.5 2.2-.4 3.3.2 1.7.9 3 2.3 4.2 3.7.4.4.5.5.9 0C77.5 7.3 83 4.5 89 3a39 39 0 0111.1-1.5zM140.7 1c1.9.8 2.6 2.6 1.5 4.4-.2.5-.2.6.2 1 1.6 1.6 1.3 4-.9 5-1.6.9-3.2.8-4.7 0-1.9-1.1-2.3-3.4-.6-5 .2-.2.6-.3.2-.8-1.1-2-.6-3.8 1.7-4.6.3-.3 1.8-.4 2.6 0zm-1.5 6c-1.1 0-2 .8-2 1.6s.9 1.5 2 1.5 2-.7 2-1.5c0-1-.9-1.7-2-1.7zm0-4.3c-.9 0-1.6.6-1.5 1.4.2.8.7 1.2 1.5 1.2s1.3-.4 1.4-1.2c.1-.8-.6-1.4-1.4-1.4z"/>
	</symbol>
	<symbol id="perfect-money" viewBox="0 0 32 32">
		<path d="M16.4 0c9 0 16.3 7.2 16.3 16s-7.3 16-16.3 16S0 24.8 0 16 7.3 0 16.4 0z"/>
		<path fill="currentColor" d="M15.7 10.8h-2.2l-.1.2v.2h.3l.9.3c.1 0 .3.2.3.4v2.8l-.1 2.2c-.1 1.2-.2 4-.5 5l-.4.3-.6.2h-.4l-.1.3.1.2h3a75.8 75.8 0 011-.2v-.3h-.7a1 1 0 01-.5-.2l-.2-.2-.1-1.3v-2.3-2l.2-1.6v-1.6h.1l.6 1.3.6 1.3 1.7 3.5.5 1.1.7 1.4a10.8 10.8 0 01.4 1.2h.4l.5-1.1 1.5-3.1 1.7-3.2.4-.9a30.8 30.8 0 01.8-1.5v8.6c0 .1 0 .3-.2.4-.1.1-.3.2-.7.2h-.5v.5h4.5l.1-.2v-.3H28l-.7-.2a.8.8 0 01-.2-.5v-.8l-.2-2.8V13v-1c0-.2.2-.4.4-.5l.8-.3h.4s.1-.1 0-.2v-.2h-3.1c0 .4-.1.9-.4 1.4l-1 2-1.7 3.5-1.5 2.8-1.3-2.5-2.1-4.2-.8-1.7-.2-1.3h-.8zM5.3 20.2v1.4c-.1.6-.5.9-1.1.9h-.4v.5h4.8l.1-.2v-.3H8l-.8-.2a1 1 0 01-.4-.7v-3.2H5.3v1.8zM3.7 11v.3h.7c.3 0 .5.1.7.3 0 0 .2.2.2.5V17H7v-5-.6l.3-.1h.7c1 0 1.8.2 2.3.7.5.6.8 1.3.8 2.2a3 3 0 01-.6 2 3 3 0 01-1.8 1c-.7.2-1.8.3-3.2.3l-4-.3c1.6.3 2.8.6 3.6.6a13.6 13.6 0 005.3-.4 9 9 0 001.4-.8c.2-.2.5-.5.7-1 .2-.4.3-.9.3-1.4a3.5 3.5 0 00-1.5-2.8c-.4-.3-1-.5-1.6-.6l-2-.1H3.8l-.1.3z"/>
	</symbol>
	<symbol id="qiwi" viewBox="0 0 75 32">
		<path d="M30.2 30.9l-.6-1-1.5-1.6-.5-.4-.4-.3a9 9 0 00-1-.6c-.6-.4-1.4-.7-2.2-1a26 26 0 00-2.7-.4c-.9-.2-1.8-.3-2.5-.7-.4 0-.7-.3-1-.5l-1-.6-.7-.8-.4-.5-.1-.2s0-.2-.2-.2v1.1l.1.6s.2.3.1.4A12.6 12.6 0 016.8 20l-1-1.3-.7-1.4a12.8 12.8 0 01-.8-7.3l.5-1.7.3-.8.4-.6c.6-1 1.3-1.7 2-2.4 1-.6 1.9-1.1 3-1.4 1.1-.3 2.6-.3 3.8 0a13.1 13.1 0 019.3 8.1c.9 2 1.2 5 .4 7.3l-1-.5-1.1-.2-1.4.1c.7 0 1.3.1 1.7.3l.6.3 1 .7c.8.7 1.4 1.7 1.6 2.9l.1-.1.2-.2.2-.3.5-.8.9-1.5c.4-1.1.8-2.3 1-3.7.6-3 0-6-1-8A13.5 13.5 0 0015.5 0h-.2c-1.6 0-3 .2-4.3.5l-1.8.7-1.7.8-.7.5c-.3 0-.5.3-.7.4L4.7 4.1 3.5 5.3c0 .2-.2.3-.3.4L3 6l-.2.4c-.1 0-.1.3-.3.3 0 .3-.3.5-.4.8l-.5.8L.8 10a12.3 12.3 0 00-.7 4.1v2.1l.4 2 .7 1.9c.3.5.5 1.1.9 1.6.2.5.6 1 1 1.4l1.3 1.2c.9.8 1.9 1.4 3 1.9 2.1 1 5.3 1.7 8 1.5.8 0 1.5-.2 2.2-.3.6-.3 1.3-.4 2-.5a12.6 12.6 0 017.8 2l1.4 1 1.2 1.3.2.5c.1 0 0 .3.3.3.2-.2 0-.4 0-.6l-.3-.5z"/>
		<path d="M23.7 21.4v.6c.1.3.2.8.6 1 .2 0 .2-.4.2-.6a2 2 0 00-.4-.9c-.2 0-.3-.1-.4 0zm-2.4 1c-.4 0-.5.2-.6.3-.3.8.1 1.5 1 1.5.3 0 .5-.3.5-.7 0-.6-.3-1-.9-1zM41.2 20c.2.5.4 1 .8 1.3s.6.7 1.1.9c.4.3.9.5 1.4.6l.8.3c.3 0 .5.2.6.5 0 .4-.3.5-.6.6-.4-.1-.8 0-1-.2l-1.9-.5c-1.1-.5-2-1-2.8-1.9L39 21l-.4-.8a5.6 5.6 0 01-3.2-1.5 6.6 6.6 0 01-1.6-3.3c-.3-1.3-.2-3 .2-4.2.7-2.5 2.3-4.1 5.3-4.3.8 0 1.5 0 2.2.3.7.3 1.3.7 1.8 1.2l.6.6v.2l.2.1v.2l.2.2.3.6.2.5a8.7 8.7 0 01-.5 6.5 5 5 0 01-1.3 1.6c-.5.5-1.1.8-1.8 1.2zM39 8.3c-.4 0-.6.2-1 .3l-.6.6c-.3.2-.3.5-.5.7a8.6 8.6 0 00-.7 3.3c0 1.6.3 3.2 1 4.1.3.5.8.9 1.3 1.1l1 .2c.2-.1.5 0 .6-.2l.6-.2.5-.3.5-.5.2-.4c.8-1.6 1-4.4.4-6.1-.2-.7-.5-1.2-.8-1.7-.3-.3-.7-.6-1.2-.8l-1.2-.2zM48.7 7h2.2c.1.3 0 .5 0 .8v10.4c0 .3.1.6 0 .8v.7h-2.3A327 327 0 0148.7 7zm5.5 0h2.2c.2.3.2.7.3 1l1.9 7.5.1-.2.1-.3c0-.2.2-.3.1-.5l.4-1 .7-2.2.6-2.2.7-2.1h1l.7 2.1.6 2.2 1.4 4.3c.1-.3.1-.8.3-1l.2-1.1 1.1-4.3.6-2.2h1.9c0 .6-.2 1.2-.4 1.7 0 .5-.3 1-.4 1.6l-1 3.1-.8 3.2-.4 1.6c-.2.5-.3 1.2-.6 1.6h-1.2c-.4-.6-.5-1.4-.8-2l-2-6c-.2.2-.2.7-.3 1l-.3 1c-.2.7-.5 1.3-.6 2l-.7 2c-.2.6-.3 1.4-.7 2h-1.2c-.4-.4-.4-1-.6-1.6l-.5-1.5-.8-3.2-1-3.2-.4-1.6c0-.5-.5-1-.3-1.6l.1-.1zm18.1 0h2.2c.2.5.1 1 .1 1.6v11.1h-2-.4c-.2-.5-.1-1-.1-1.6V8.7 7.2l.2-.1z"/>
	</symbol>
	<symbol id="skrill" viewBox="0 0 93 32">
		<path d="M0 11.2c0 9.4 11.2 9 12.9 9.6 2.2.8 2 4.7-3 4.7-2.6 0-4.8-.3-7.3-1.1l-1.9-.7v7c1.9 1 8.3 1.2 11 1.2 6.8 0 13.1-4.7 11.4-11.8-1.7-7.6-11.8-6.8-13.2-7.6-1.7-.8-1.7-3 .2-3.8 2.5-1 7.5 0 10 .8l2.2.8V3.6c-1.1-.4-1.7-.7-4-1.1-3-.7-4.3-.7-7.4-.7C5.2 1.8 0 5.6 0 11.2zM25.3 3.4v28.2h8.1V23l.2.5.7 1.4 1 2c.3.8 1.2 3.6 1.2 4.6h9.9l-.5-1.4-1.9-4.3c-3.9-8-3-3.7.4-10.4a24 24 0 002.5-5.8h-9.3c-.3 1.5-3.3 6.7-4.2 7.5V1.8c-1.6 0-6.9 1.6-8.1 1.6zM74 3.2v28.4h7.8V1.8c-1.3 0-6.1 1.3-7.9 1.4zM85.2 3.2v28.4H93V1.8c-1 0-6.9 1.4-7.8 1.4zM47.8 19v12.6h7.8v-9.4c0-4.4.6-6.1 5-6.1V9.5h-2.5c-2.3.3-4 .3-6.5 1.9-2.2 1.4-3.8 4-3.8 7.7zM63 31.6h7.8V9.8H63v21.8zM63.1 3.7c0 1.3.2 2 1.1 3 3.5 3.4 9-1.7 5.3-5.5-2.3-2.5-6.4-.3-6.4 2.5z"/>
	</symbol>
	<symbol id="sticpay" viewBox="0 0 188 32">
		<path d="M22.5 22c0 3-1.2 5.5-3.6 7.2s-5.6 2.6-9.8 2.6a23 23 0 01-5-.5c-1.5-.3-2.8-.8-4.1-1.5v-7.4a22.6 22.6 0 009.3 2.7c1 0 2-.2 2.7-.7a2.3 2.3 0 00.7-2.9l-.8-1L9 18.3c-1.6-1-3-2.4-4-4a8.3 8.3 0 01.3-9.5c1-1.5 2.6-2.7 4.4-3.4C11.7.6 13.9.2 16 .2c3.6 0 7.1.7 10.4 2.3l-3.3 6.2c-2.7-1.2-5-1.8-7-1.8-.8 0-1.7.1-2.4.6a2 2 0 00-.8 1.7c0 .7.3 1.4.8 1.9 1 1 2 1.7 3 2.4 1.7 1 3.2 2.3 4.3 3.9a8 8 0 011.4 4.6zM39 31.4h-9.4l5.7-24h-7.7L29.4.7H54l-1.7 6.7h-7.6l-5.7 24zm10.8 0L57.4.7h9.5l-7.4 30.7h-9.6zM86 7c-1.7 0-3.4.6-4.7 1.7a11 11 0 00-3.3 4.5c-.8 2-1.2 4-1.2 6.2 0 2 .4 3.3 1.4 4.3.9.9 2.1 1.3 3.8 1.3 1.4 0 2.7-.1 4-.4 1.7-.4 3.3-.9 4.9-1.5V30a29 29 0 01-10.6 1.9c-4.2 0-7.4-1-9.6-3-2.3-2.1-3.4-5.1-3.4-9 0-3.5.8-7 2.4-10.2 1.5-3 3.8-5.4 6.7-7C79.3.9 82.5 0 85.9.2c4 0 8 .9 11.6 2.8l-3.6 6.4c-1.3-.7-2.7-1.3-4.1-1.8-1.3-.4-2.6-.6-4-.6zm38 2.9c0 3.5-1.4 6.3-4.2 8.3s-6.5 3-11.3 3h-2l-2.5 10.2h-9.4L102 .7h9c4.2 0 7.4.7 9.6 2.3a7.8 7.8 0 013.3 6.9zM108 14.5h1.6a5 5 0 003.5-1.3 4 4 0 001.1-4.2l-.6-.9c-.7-.5-1.5-.8-2.4-.7h-1.4l-1.8 7zm35.1 11.1h-10.8l-3 5.8h-9.7L137.4.7h12.1l3 30.7h-9.2l-.2-5.8zm-7.3-6.5h7l-.4-9V8.5 5.6c-.3 1.2-.8 2.4-1.4 3.5l-5.2 10zm33.8-7L177 .6h10.5l-14.7 18.8-3 12h-9.4l3-12L157.6.7h9.7l2.2 11.3z"/>
	</symbol>
	<symbol id="visa" viewBox="0 0 96 32">
		<path d="M39.2 1l-4.8 30h7.7L47 1h-7.7zm23.3 12.2C59.8 11.9 58 11 58 9.6c0-1.2 1.4-2.5 4.5-2.5 2.5 0 4.3.5 5.7 1.1l.7.3 1-6.2C68.5 1.7 66.1 1 63.1 1c-7.6 0-13 4-13 9.6 0 4.2 3.9 6.5 6.8 7.9 3 1.4 4 2.4 4 3.6 0 2-2.4 2.9-4.6 2.9-3.1 0-4.8-.5-7.3-1.6l-1-.4-1 6.5a24 24 0 008.5 1.5c8.1 0 13.4-3.9 13.4-9.9 0-3.3-2-5.8-6.4-8zM89.8 1h-6c-1.8 0-3.2.5-4 2.4L68.4 31h8l2.3-6h9l1.2 6H96L89.8 1zm-8.9 18c.2 0 3.1-9.8 3.1-9.8l2.4 9.7h-5.5zM28 1l-7.5 20.3-.8-4A22.4 22.4 0 009 5.2l6.9 25.7H24L36.1 1H28z"/>
		<path fill="currentColor" d="M17 4.8A5 5 0 0012 1H.2l-.1.5a29.3 29.3 0 0119.7 16L17 4.9z"/>
	</symbol>
	<symbol id="webmoney" viewBox="0 0 112 32">
		<path d="M18 13.2c-2.5 0-3.8 1.9-3.8 4.4 0 2.7 1.2 4.5 4 4.5 1.2 0 2.2-.4 3-.8V20c-1 .6-1.8.9-2.7.9-1.7 0-2.6-1-2.6-3h5.5v-.5c0-2.8-1.3-4.2-3.4-4.2zm-2 3.6c.2-1.6 1-2.4 2-2.4.9 0 1.7.7 1.8 2.4H16zm11-3.6a5 5 0 00-2.3.7V9l-1.7.4v11.7c1 .6 2.3.9 3.2.9 2.5 0 4-1.6 4-4.7 0-2.7-1.1-4.2-3.2-4.2zm-.8 7.7c-.4 0-1 0-1.5-.3v-5.5c.7-.4 1.2-.5 1.8-.5 1.1 0 2 .6 2 2.8 0 2.7-1 3.5-2.3 3.5zm35.6-5.1v6h-1.7v-5.7c0-1.3-.7-1.5-1.6-1.5-.6 0-1.5.3-2 .6v6.7h-1.8v-7.4c.8-.5 2.4-1.3 4.3-1.3 2 0 2.8.8 2.8 2.6zM41.5 9.9h2.1v12h-1.8v-8.7h-.1l-3.5 8.7h-1l-3.5-8.5h-.1V22H32v-12h2l3.8 9.4h.1l3.6-9.4zm7.8 3.3c-2.2 0-3.8 1.5-3.8 4.4 0 3 1.5 4.5 3.8 4.5s3.8-1.6 3.8-4.5-1.6-4.4-3.8-4.4zm0 7.7c-1.2 0-2-1-2-3.3 0-2.2.9-3.2 2-3.2s2 1 2 3.2c0 2.4-.8 3.3-2 3.3zm54 3.2l3 3.4a14.6 14.6 0 01-9.2 3.2 14.8 14.8 0 117.4-27.5l-1.3 1.2-2-2-3.5 3-2-2.2L89.1 9l4.1 4.5-1.6 1.4 4 4.5-1.5 1.5 5.8 6.4 3.4-3.2zm7.1-9.1l1.6 1.7-1.8 1.6-1.5-1.7 1.7-1.6zm-33.3-1.5H79L76 22c-.9 2.4-1.9 3.6-3.8 3.6V24c1.1 0 1.8-1 2.2-2.2l-3.2-8.4H73l2.1 6.2h.1l2-6.2zm-10-.3c-2.4 0-3.7 1.9-3.7 4.4 0 2.7 1.1 4.5 4 4.5 1.2 0 2.2-.4 3-.8V20c-1 .6-1.8.9-2.7.9-1.8 0-2.6-1-2.6-3h5.5v-.5c0-2.8-1.3-4.2-3.4-4.2zm-2 3.6c.2-1.6 1-2.4 2-2.4s1.8.7 1.9 2.4H65zm42.9 4.4l2.4 2.6-2.7 2.4-2.3-2.7 2.6-2.3zM101 5l2.4 2.6-2.6 2.4-2.4-2.6L101 5zm-5.5 1l3.1 3.4-3.5 3.2L91.9 9l3.6-3.2zm7.7 9.3l-2.4-2.6 2.6-2.4 2.4 2.6-2.6 2.4zm3.2-4l1.8-1.5 1.6 1.7-1.8 1.6-1.6-1.7zM11.7 10h2L11 22H9.2l-2.3-8.4h-.1l-2.3 8.4H2.7L0 9.9h1.9l1.9 9 2.3-9h1.5l2.3 9h.1l1.7-9zm93.7 11l-2.3-2.7 2.6-2.3 2.4 2.6-2.7 2.4zm-1.2-14.7l1.7-1.6 1.6 1.7-1.7 1.6-1.6-1.7zm-6.6 12.4L94.5 15l3.5-3.2 3.1 3.5-3.5 3.2zm2.5 6L97 21.1l3.5-3.1 3.1 3.5-3.5 3.1z"/>
	</symbol>
</svg>
